<svg width="1465" height="1009" viewBox="0 0 1465 1009" fill="none" xmlns="http://www.w3.org/2000/svg">
<path d="M732.439 1373.33C1135.83 1373.33 1462.84 1036.42 1462.84 620.81C1462.84 205.205 1135.83 -131.711 732.439 -131.711C329.05 -131.711 2.03906 205.205 2.03906 620.81C2.03906 1036.42 329.05 1373.33 732.439 1373.33Z" stroke="black" stroke-opacity="0.18" stroke-width="2.61292" stroke-miterlimit="10" style="mix-blend-mode:soft-light"/>
<path d="M732.438 1344.25C1120.24 1344.25 1434.61 1020.36 1434.61 620.811C1434.61 221.266 1120.24 -102.63 732.438 -102.63C344.638 -102.63 30.2637 221.266 30.2637 620.811C30.2637 1020.36 344.638 1344.25 732.438 1344.25Z" stroke="black" stroke-opacity="0.18" stroke-width="2.61292" stroke-miterlimit="10" style="mix-blend-mode:soft-light"/>
<path d="M732.442 1315.16C1104.65 1315.16 1406.38 1004.29 1406.38 620.811C1406.38 237.331 1104.65 -73.5408 732.442 -73.5408C360.235 -73.5408 58.502 237.331 58.502 620.811C58.502 1004.29 360.235 1315.16 732.442 1315.16Z" stroke="black" stroke-opacity="0.18" stroke-width="2.61292" stroke-miterlimit="10" style="mix-blend-mode:soft-light"/>
<path d="M732.441 1286.08C1089.06 1286.08 1378.15 988.229 1378.15 620.81C1378.15 253.392 1089.06 -44.4602 732.441 -44.4602C375.823 -44.4602 86.7266 253.392 86.7266 620.81C86.7266 988.229 375.823 1286.08 732.441 1286.08Z" stroke="black" stroke-opacity="0.18" stroke-width="2.61292" stroke-miterlimit="10" style="mix-blend-mode:soft-light"/>
<path d="M732.438 1257C1073.47 1257 1349.93 972.168 1349.93 620.81C1349.93 269.452 1073.47 -15.3796 732.438 -15.3796C391.408 -15.3796 114.949 269.452 114.949 620.81C114.949 972.168 391.408 1257 732.438 1257Z" stroke="black" stroke-opacity="0.18" stroke-width="2.61292" stroke-miterlimit="10" style="mix-blend-mode:soft-light"/>
<path d="M732.442 1227.92C1057.88 1227.92 1321.7 956.107 1321.7 620.81C1321.7 285.513 1057.88 13.7014 732.442 13.7014C407.001 13.7014 143.18 285.513 143.18 620.81C143.18 956.107 407.001 1227.92 732.442 1227.92Z" stroke="black" stroke-opacity="0.18" stroke-width="2.61292" stroke-miterlimit="10" style="mix-blend-mode:soft-light"/>
<path d="M732.439 1198.83C1042.29 1198.83 1293.47 940.042 1293.47 620.811C1293.47 301.579 1042.29 42.7908 732.439 42.7908C422.591 42.7908 171.41 301.579 171.41 620.811C171.41 940.042 422.591 1198.83 732.439 1198.83Z" stroke="black" stroke-opacity="0.18" stroke-width="2.61292" stroke-miterlimit="10" style="mix-blend-mode:soft-light"/>
<path d="M732.439 1169.75C1026.7 1169.75 1265.24 923.981 1265.24 620.81C1265.24 317.64 1026.7 71.8713 732.439 71.8713C438.181 71.8713 199.637 317.64 199.637 620.81C199.637 923.981 438.181 1169.75 732.439 1169.75Z" stroke="black" stroke-opacity="0.18" stroke-width="2.61292" stroke-miterlimit="10" style="mix-blend-mode:soft-light"/>
<path d="M732.438 1140.67C1011.11 1140.67 1237.01 907.921 1237.01 620.811C1237.01 333.701 1011.11 100.952 732.438 100.952C453.768 100.952 227.861 333.701 227.861 620.811C227.861 907.921 453.768 1140.67 732.438 1140.67Z" stroke="black" stroke-opacity="0.18" stroke-width="2.61292" stroke-miterlimit="10" style="mix-blend-mode:soft-light"/>
<path d="M732.437 1111.59C995.518 1111.59 1208.79 891.859 1208.79 620.81C1208.79 349.762 995.518 130.033 732.437 130.033C469.355 130.033 256.086 349.762 256.086 620.81C256.086 891.859 469.355 1111.59 732.437 1111.59Z" stroke="black" stroke-opacity="0.18" stroke-width="2.61292" stroke-miterlimit="10" style="mix-blend-mode:soft-light"/>
<path d="M732.441 1082.5C979.929 1082.5 1180.56 875.794 1180.56 620.811C1180.56 365.827 979.929 159.122 732.441 159.122C484.953 159.122 284.324 365.827 284.324 620.811C284.324 875.794 484.953 1082.5 732.441 1082.5Z" stroke="black" stroke-opacity="0.18" stroke-width="2.61292" stroke-miterlimit="10" style="mix-blend-mode:soft-light"/>
<path d="M732.438 1053.42C964.337 1053.42 1152.33 859.733 1152.33 620.81C1152.33 381.887 964.337 188.202 732.438 188.202C500.538 188.202 312.547 381.887 312.547 620.81C312.547 859.733 500.538 1053.42 732.438 1053.42Z" stroke="black" stroke-opacity="0.18" stroke-width="2.61292" stroke-miterlimit="10" style="mix-blend-mode:soft-light"/>
<path d="M732.436 1024.34C948.747 1024.34 1124.1 843.672 1124.1 620.81C1124.1 397.949 948.747 217.283 732.436 217.283C516.126 217.283 340.771 397.949 340.771 620.81C340.771 843.672 516.126 1024.34 732.436 1024.34Z" stroke="black" stroke-opacity="0.18" stroke-width="2.61292" stroke-miterlimit="10" style="mix-blend-mode:soft-light"/>
<path d="M732.439 995.257C933.161 995.257 1095.88 827.612 1095.88 620.811C1095.88 414.01 933.161 246.365 732.439 246.365C531.717 246.365 369 414.01 369 620.811C369 827.612 531.717 995.257 732.439 995.257Z" stroke="black" stroke-opacity="0.18" stroke-width="2.61292" stroke-miterlimit="10" style="mix-blend-mode:soft-light"/>
<path d="M732.439 966.168C917.568 966.168 1067.64 811.546 1067.64 620.81C1067.64 430.075 917.568 275.453 732.439 275.453C547.311 275.453 397.234 430.075 397.234 620.81C397.234 811.546 547.311 966.168 732.439 966.168Z" stroke="black" stroke-opacity="0.18" stroke-width="2.61292" stroke-miterlimit="10" style="mix-blend-mode:soft-light"/>
<path d="M732.44 937.087C901.98 937.087 1039.42 795.485 1039.42 620.811C1039.42 446.136 901.98 304.534 732.44 304.534C562.9 304.534 425.461 446.136 425.461 620.811C425.461 795.485 562.9 937.087 732.44 937.087Z" stroke="black" stroke-opacity="0.18" stroke-width="2.61292" stroke-miterlimit="10" style="mix-blend-mode:soft-light"/>
<path d="M732.439 908.006C886.39 908.006 1011.19 779.424 1011.19 620.811C1011.19 462.197 886.39 333.615 732.439 333.615C578.488 333.615 453.686 462.197 453.686 620.811C453.686 779.424 578.488 908.006 732.439 908.006Z" stroke="black" stroke-opacity="0.18" stroke-width="2.61292" stroke-miterlimit="10" style="mix-blend-mode:soft-light"/>
<path d="M732.439 878.925C870.802 878.925 982.966 763.363 982.966 620.81C982.966 478.257 870.802 362.696 732.439 362.696C594.077 362.696 481.912 478.257 481.912 620.81C481.912 763.363 594.077 878.925 732.439 878.925Z" stroke="black" stroke-opacity="0.18" stroke-width="2.61292" stroke-miterlimit="10" style="mix-blend-mode:soft-light"/>
<path d="M732.44 849.836C855.209 849.836 954.733 747.298 954.733 620.811C954.733 494.323 855.209 391.785 732.44 391.785C609.671 391.785 510.146 494.323 510.146 620.811C510.146 747.298 609.671 849.836 732.44 849.836Z" stroke="black" stroke-opacity="0.18" stroke-width="2.61292" stroke-miterlimit="10" style="mix-blend-mode:soft-light"/>
<path d="M732.437 820.756C839.618 820.756 926.505 731.237 926.505 620.811C926.505 510.384 839.618 420.866 732.437 420.866C625.257 420.866 538.37 510.384 538.37 620.811C538.37 731.237 625.257 820.756 732.437 820.756Z" stroke="black" stroke-opacity="0.18" stroke-width="2.61292" stroke-miterlimit="10" style="mix-blend-mode:soft-light"/>
<path d="M732.438 791.675C824.03 791.675 898.279 715.176 898.279 620.811C898.279 526.445 824.03 449.947 732.438 449.947C640.846 449.947 566.597 526.445 566.597 620.811C566.597 715.176 640.846 791.675 732.438 791.675Z" stroke="black" stroke-opacity="0.18" stroke-width="2.61292" stroke-miterlimit="10" style="mix-blend-mode:soft-light"/>
<path d="M732.437 762.594C808.44 762.594 870.052 699.115 870.052 620.81C870.052 542.506 808.44 479.027 732.437 479.027C656.434 479.027 594.821 542.506 594.821 620.81C594.821 699.115 656.434 762.594 732.437 762.594Z" stroke="black" stroke-opacity="0.18" stroke-width="2.61292" stroke-miterlimit="10" style="mix-blend-mode:soft-light"/>
<path d="M732.438 733.505C792.848 733.505 841.82 683.05 841.82 620.811C841.82 558.571 792.848 508.116 732.438 508.116C672.028 508.116 623.057 558.571 623.057 620.811C623.057 683.05 672.028 733.505 732.438 733.505Z" stroke="black" stroke-opacity="0.18" stroke-width="2.61292" stroke-miterlimit="10" style="mix-blend-mode:soft-light"/>
<path d="M732.439 704.424C777.26 704.424 813.594 666.989 813.594 620.811C813.594 574.633 777.26 537.198 732.439 537.198C687.618 537.198 651.283 574.633 651.283 620.811C651.283 666.989 687.618 704.424 732.439 704.424Z" stroke="black" stroke-opacity="0.18" stroke-width="2.61292" stroke-miterlimit="10" style="mix-blend-mode:soft-light"/>
</svg>
